# xmcd CD database file
#
# Track frame offsets:
#	150
#	19225
#	34105
#	49472
#	66912
#	87887
#	105192
#	122925
#	139657
#	153415
#	173667
#	188842
#	205107
#	222177
#	241697
#
# Disc length: 3451 seconds
#
# Revision: 0
# Processed by: cddbd v1.4PL0 Copyright (c) Steve Scherf et al.
# Submitted via: CDex 1.40Release
#
DISCID=c90d790f
DTITLE=Tim McGraw - A Place In The Sun
DYEAR=1999
DGENRE=Country
TTITLE0=The Trouble With Never
TTITLE1=seventeen
TTITLE2=She'll Have You Back
TTITLE3=Somebody Must Be Prayin' For Me
TTITLE4=My Best Friend
TTITLE5=senorita Magarita
TTITLE6=Some Things Never Change
TTITLE7=You Don't Love Me Anymore
TTITLE8=Something Like That
TTITLE9=Please Remember Me (pop radio mix)
TTITLE10=Carry On
TTITLE11=My next Thirty Years
TTITLE12=Eyes Of A Woman
TTITLE13=A Place In The Sun
TTITLE14=It's Your Love-Remix (featuring Faith Hill)
EXTD=YEAR: 1999 ID3G: 2
EXTT0=
EXTT1=
EXTT2=
EXTT3=
EXTT4=
EXTT5=
EXTT6=
EXTT7=
EXTT8=
EXTT9=
EXTT10=
EXTT11=
EXTT12=
EXTT13=
EXTT14=
PLAYORDER=
